<?xml version="1.0" encoding="UTF-8"?>
<svg width="1200px" height="431px" viewBox="0 0 1200 431" version="1.1" xmlns="http://www.w3.org/2000/svg" xmlns:xlink="http://www.w3.org/1999/xlink">
    <!-- Generator: Sketch 61.2 (89653) - https://sketch.com -->
    <title>Shape</title>
    <desc>Created with Sketch.</desc>
    <g id="Page-1" stroke="none" stroke-width="1" fill="none" fill-rule="evenodd">
        <g id="1458869-9e9e9e" fill="#C71645" fill-rule="nonzero">
            <g id="Group" transform="translate(600.000000, 215.500000) scale(-1, 1) rotate(-180.000000) translate(-600.000000, -215.500000) translate(0.000000, 0.000000)">
                <path d="M380.8,427.9 C374.7,419.9 370.8,416.6 360.8,411 C356.3,408.6 355,405.9 351.5,391.3 C350.1,385.5 348.5,380.1 347.9,379.3 C347.2,378.6 344.8,378 342.4,378 C338.4,378 338,377.8 338,375.6 C338,374.2 338.5,372.8 339,372.5 C340.5,371.6 340.2,355.4 338.4,347.1 C336.5,337.5 333,312.7 333,308 C333,306 332.1,301.7 331,298.5 C326.1,284.4 325.7,279 327.5,255.9 C329.4,231.8 329,217.9 326.1,207.5 C322.1,193.4 320.8,185.8 320.4,176.6 C320.2,170.7 319.3,164.4 318,159.8 C315.8,152.6 308.9,135.5 306.7,131.8 C305.5,129.8 305.5,129.7 311.4,125.4 C312.5,124.7 313.1,123.7 312.7,123.3 C312.3,122.9 311.3,123.5 310.5,124.7 C309.7,125.8 307.1,127.3 304.6,127.9 C302.1,128.5 299.8,129.4 299.5,130 C299.2,130.5 298,131 296.9,131 C295.1,131 295.4,131.9 299.5,139.9 C305.1,150.7 305.3,152.5 301.6,176 C299.1,191.4 294.5,208.9 291.6,213.5 C290.9,214.6 290,218 289.7,221 C289.1,227.8 286.3,242.7 285.5,244 C284.1,246.3 283,243.5 283,237.7 C283,230.9 282.2,231.1 279.5,238.5 C277.5,244 274.4,249 272.9,249 C271.3,249 271.9,245.1 274.6,238.9 C277.7,231.4 277.1,230.2 273.4,236.7 C267.6,247 265.9,249.3 264.7,248.1 C263.9,247.3 264.2,245.8 265.8,242.5 C268.4,237.1 268.5,236.3 266.5,238 C263.2,240.7 263.9,237.6 268.6,228.3 L273.5,218.5 L273.3,182.3 L273.1,146.1 L270.5,142.2 C269,139.9 266.3,137.5 263.9,136.4 C261.6,135.4 258.7,133.2 257.4,131.5 C255.9,129.5 253.4,127.8 250.8,127.1 C248.4,126.4 244.3,124.7 241.6,123.4 C238.9,122 236.6,121.1 236.6,121.2 C236.5,121.4 235.6,122.7 234.7,124.2 C233.5,126.1 233,129.1 233,133.7 C233,138 232.3,141.9 231.2,144.2 C229.3,148.2 222.2,156.3 219.6,157.3 C217.6,158.1 217.6,160.9 219.6,170.9 L221.2,178.9 L217.6,185.5 C214.2,191.5 213.6,192 210.5,192 C205.9,192 201,187.8 201,183.9 C201,182 201.5,181 202.5,181 C203.7,181 204,179.4 204,173 L204,164.9 L199,165.6 C194.1,166.2 193.9,166.2 189.5,161.8 L185,157.3 L184,160.9 C181.7,169.2 178.2,192.5 177.9,201.7 C177.8,203 179,205.4 180.4,207.1 C181.8,208.8 183,210.8 183,211.5 C183,212.3 184.4,214.5 186.1,216.4 C188.9,219.7 189.3,222 186.9,222 C186.3,222 184.4,220.4 182.6,218.5 C177.2,212.5 173.7,216 172.5,228.5 C171.6,237.8 171.2,239.2 169.2,238.8 C167.8,238.5 167.5,237.2 167.5,232.1 C167.5,228.6 167.1,225.5 166.5,225.4 C166,225.2 163.4,228.4 160.8,232.5 C154.4,242.6 151.5,242.3 156,232 L158,227.5 L154.3,231.8 C150.8,235.7 147,237.4 147,235 C147,234.5 148.6,231.8 150.5,229.1 C155,222.8 154.9,221.3 150.3,224.5 C146.6,227 144,227.7 144,226.2 C144,225.8 146.7,223.1 150,220.2 C153.6,217 157.4,212.4 159.6,208.5 L163.2,202 L161,200.2 C159.1,198.7 159,198.1 160.1,195.5 C160.7,193.8 161.6,186 162,178 C162.5,170 163.3,162.2 164,160.5 C164.6,158.9 165.8,153.8 166.6,149.2 C167.4,144.6 168.5,139.8 169.1,138.3 C169.6,136.9 169.7,133 169.4,129.5 L168.7,123.2 L164.6,123.6 C160.4,124 160.6,123.6 165.1,122.6 C166.6,122.3 168,121.1 168.3,120 C168.7,118.4 167.7,117.2 163.3,114.4 C160.3,112.5 158,110.6 158.3,110.3 C158.6,110 160.5,110.8 162.5,112 C166.6,114.5 168.5,114 164.6,111.5 C163.2,110.5 162,109.3 162,108.7 C162,108.2 162.8,108.4 163.8,109.3 C167.1,112.3 168.6,111.5 168.2,106.8 C168,104.4 167.2,101.8 166.5,101 C164,97.9 163.8,96.6 166.2,98.8 C169.5,101.8 170,101.6 170,97.1 C170,91.7 168.3,90.6 161.2,91.3 C155.8,91.9 148,90.5 148,89 C148,86.5 127.3,93.2 126.2,96.1 C126,96.6 125.3,96.7 124.7,96.3 C124,96 123.8,96 124.2,96.5 C124.6,96.9 124.5,97.9 123.8,98.7 C123.2,99.4 123,100.4 123.4,100.8 C123.8,101.2 124.8,100.6 125.6,99.6 C126.8,97.9 127,97.9 127,99.3 C127,100.2 126.3,102.8 125.4,105 C124.3,107.7 124,110.2 124.5,112.8 C126,121.1 124.8,136.6 122.2,141.6 C118.5,148.9 109.7,155 103,155 C100.3,155 91.5,150.3 88.8,147.4 C85.1,143.4 84,139.9 84,132 C84,128 83.5,124.8 82.9,124.4 C81.3,123.4 82.4,115.3 84.5,113 C85.5,111.9 86,110.4 85.6,109.5 C85.2,108.4 85.4,108.1 86.2,108.6 C87,109.1 87.1,108.3 86.7,105.7 C86.4,103.4 86.6,101.9 87.3,101.6 C88.2,101.1 88.2,100.9 87.3,100.4 C86.6,100.1 86,99.4 86,98.9 C86,98.3 86.5,98.2 87,98.5 C87.6,98.8 88,98.4 88,97.6 C88,96.6 85.7,95.7 80.3,94.5 C76,93.6 71.9,92.7 71.3,92.5 C70.5,92.2 70,90.1 70,86.8 L70,81.5 L61.9,75.5 C53.4,69.3 44.9,60.7 42.4,55.8 C41.3,53.6 40.9,48.9 40.7,36.7 C40.5,18 39.5,14.7 33.8,13.5 C32,13.1 26.7,11 22,8.7 C17.3,6.5 10.6,3.6 7,2.3 L0.5,0 L547.3,0 L1094,0 L1095,2.6 C1095.6,4 1096,6.2 1096,7.6 C1096,9.3 1096.6,10 1097.9,10 C1099,10 1100.2,10.5 1100.5,11 C1101.7,13 1102.8,11.9 1105.3,6 L1107.9,0 L1153.5,0 C1192.6,0 1199,0.2 1199,1.5 C1199,2.2 1198.2,3.4 1197.3,3.9 C1195.7,4.8 1195.7,5.1 1197,6 C1197.8,6.5 1199,7.1 1199.5,7.3 C1200.1,7.5 1200,8.3 1199.2,9.2 C1198.4,10.2 1195.4,11.1 1191.8,11.5 L1185.8,12.2 L1188.6,14 C1192.1,16.4 1193.5,18.9 1192.1,20.3 C1190.7,21.7 1178.8,16.4 1174.3,12.2 C1170.9,9.1 1170.4,9 1162.7,9 C1155.9,9 1154.3,9.3 1152.4,11.1 C1151,12.4 1148.6,13.2 1145.8,13.4 C1140,13.7 1132.8,18.2 1130,23.2 C1128.8,25.3 1127.2,27.4 1126.3,27.8 C1125.5,28.3 1123.5,31.6 1121.9,35.1 C1119.4,40.7 1119.1,42.7 1119,51.2 C1119,66.6 1118.2,67.3 1100,69.6 C1085.9,71.4 1077.3,75.1 1077.8,79.2 C1077.9,80.6 1077.3,83.6 1076.5,86 C1074.7,91 1074.5,96.6 1076.1,97.6 C1076.8,98 1077,99.5 1076.5,101.9 C1076.1,103.9 1075.6,108.4 1075.5,112 C1075.3,118.9 1073.2,124.2 1068.5,129.8 L1065.9,132.9 L1071.7,144.7 C1074.9,151.2 1077.7,156.7 1078,157 C1078.3,157.3 1079.7,159.2 1081.3,161.2 C1082.8,163.2 1084.9,165.2 1086,165.5 C1088.8,166.4 1088.5,169.6 1085.5,171.6 C1084.1,172.5 1083,173.9 1083,174.7 C1083,177.2 1090.4,189.9 1092.1,190.3 C1094.2,190.9 1098.3,199.8 1097.4,201.9 C1097,202.8 1096.8,204.3 1096.9,205.3 C1097,206.2 1096.4,207.3 1095.6,207.6 C1094.7,207.9 1094.3,208.6 1094.6,209.2 C1094.9,209.7 1094.3,210.4 1093.1,210.7 C1090.9,211.3 1090.4,212.5 1092,213.5 C1093.8,214.6 1093,216 1090.6,216 C1087.1,216 1081.4,208.1 1079.8,201.1 C1079.2,198 1077.2,192.1 1075.5,188 C1072.7,181.2 1072.2,180.6 1069.5,180.5 C1067.2,180.5 1066.5,179.9 1065.8,177.5 C1064.8,173.6 1053,150.4 1047.7,142 C1041.8,132.4 1037.2,125.2 1032.9,118.7 C1030.7,115.5 1029,112.5 1029,112.1 C1029,111.7 1028.1,110.5 1027,109.5 C1025.9,108.5 1025,107.2 1025,106.6 C1025,104.6 1023.5,103.2 1020.7,102.5 C1018.5,101.9 1018,102.1 1018,103.6 C1018,106.9 1011.1,128.3 1008,134.7 C1004.5,141.7 1000.6,145.5 995.2,147 C984.8,149.8 977.7,146.8 971.1,136.6 C963.6,125.1 961.5,114.5 964.6,104.1 C966.2,98.5 966,97.4 963.5,98.3 C962.6,98.7 962,100.1 962,101.9 C962,103.5 961.4,105 960.6,105.3 C959.5,105.7 959.3,106.9 959.7,109.3 C960,111.5 959.6,113.9 958.5,116 C957.1,118.8 956.9,120.8 957.4,127 C957.8,131.1 958.4,139 958.6,144.5 C958.9,150 959.5,156.1 960,158 C960.5,159.9 961.1,166.2 961.5,172 C962.2,184.7 963.9,196 965.4,197.9 C966.2,198.9 965.9,199.7 964.1,201.1 C962,202.8 961.9,203.5 962.5,208.2 C963.7,217.9 964.3,218.7 972.9,221.3 C979.4,223.3 980.6,224 980.9,226.1 C981.4,229.7 978.8,242 977.6,242 C976.9,242 974.8,240 972.7,237.6 C969.2,233.4 962.5,228.2 958.8,226.7 C956.8,226 954.4,220.7 952.9,214 C950.2,201.8 950.3,202 945.8,202 C941.9,202 941.8,201.9 942.5,199.3 C944.1,192.9 944,186.8 942.2,176.5 C941.1,170.4 939.6,161 939,155.5 C938.3,150 936.7,141.3 935.3,136.1 C932.8,127 932.8,126.4 933.9,111.6 C934.5,103.3 935,94.7 935,92.5 L934.9,88.5 L932.5,91.3 C931.1,92.8 930,94.6 930,95.3 C930.1,96 931,95.4 932,94.1 C934.5,91.2 934.6,92.9 932.4,99.4 C931.4,102.4 931,105.4 931.4,107.8 C932.3,112.9 932.3,114.2 931.3,124.5 C930.8,129.5 929.7,134.6 929,136 C924.8,144 917.8,149 910.9,149 C906.4,149 897.8,144.7 894.6,140.9 C891.8,137.6 889.5,128.3 890.3,123.4 C890.6,121.5 890.4,119.8 889.9,119.5 C888.3,118.5 888.9,111.6 890.9,107.9 C892.4,105.1 892.6,104 891.7,103.1 C890.8,102.2 890.9,102 892.4,102.6 C894.1,103.3 894.2,103 893.7,100.2 C893.3,98.5 893.5,96.8 894.1,96.4 C894.7,96 894.6,95.3 893.8,94.2 C892.8,93 892.8,92.8 893.8,93.4 C894.6,93.9 895,93.5 895,92.2 C895,90.7 893.8,90.1 888.5,89.2 C884.9,88.5 880.7,87.7 879.1,87.4 L876.1,86.8 L877.9,91.6 C878.9,94.3 880.5,98.3 881.4,100.6 C882.6,103.5 882.8,105.3 882.1,107.1 C881.6,108.6 881.5,111.5 882.1,114.3 C883.1,119.6 883.1,138.4 882.2,145 C881.2,151.3 883.1,164.9 886.2,175 C887.7,179.7 889.6,189 890.5,195.8 C892.2,209.5 893,212 900.6,227.4 C903.6,233.4 906,238.7 906,239.1 C906,241.2 903.9,239.7 901.9,236 C898.5,230.1 898.1,231.1 900.6,238.8 C901.9,242.5 903,246.3 903,247.3 C903,251 900.6,248.3 898.7,242.6 C896.6,236.3 895.2,235.5 896.9,241.7 C897.5,243.8 898,247 898,248.8 C898,254.3 895.7,252 894.2,244.9 C892,235 890.6,235 891.5,244.9 C892,251.5 891.9,253.1 890.9,252.8 C889.6,252.4 889.3,251.3 887.1,240.8 C886.4,237.6 885,234 884,232.8 L882.2,230.5 L880.2,235.1 C879.1,237.6 877.5,240 876.6,240.3 C875.7,240.7 875,240.7 875,240.4 C875,238.7 879.5,223 880.6,220.8 C881.4,219.3 882,216.8 882,215.1 C882,212.2 878.2,197 876.2,192 C875,188.9 866.4,154.4 865.2,147.5 C864.4,143.1 862.5,135.3 861.3,131 C860.9,129.8 860.7,129.8 859.8,131.3 C859.2,132.6 859.2,134.6 859.9,137.8 C861.1,142.7 860.6,152 859.1,154.9 C857.6,157.5 852.8,161.6 848.6,163.8 C843.7,166.5 835.1,166.2 831.2,163.3 C825.7,159.2 822.5,153.3 822,146.2 L821.5,139.5 L819.8,143.1 C818.8,145.1 817.3,147 816.5,147.4 C815.7,147.7 815,148.8 815,149.9 C815,151 814.3,153.1 813.5,154.7 C809.8,161.8 806.8,171.1 806,178 C805.5,182.6 803.7,189.2 801.5,195 C799.5,200.2 796.1,209.5 794.1,215.5 L790.5,226.5 L790.5,246 C790.4,265.7 789.1,276 786.5,276 C784.8,276 782.8,271.8 783.1,268.9 C783.2,267.6 783.2,263.8 783.1,260.5 L782.8,254.5 L781.3,260.8 C780.5,264.2 779.5,267 779.1,267 C777.6,267 777.9,236.9 779.4,232 C780.2,229.5 781.1,223 781.5,217.5 C782.7,198.5 787.4,175.3 794.7,151.4 C797.8,141.4 798,139.8 797,136.3 C795.8,132.4 795.9,132.3 800.9,125.6 C803.7,121.9 806,118.3 806,117.6 C806,114.4 792.7,120 789.1,124.6 C787.9,126.1 787.2,127.6 787.6,127.9 C787.9,128.2 788.8,127.6 789.6,126.6 C791.5,123.9 791.5,126.4 789.5,132 C787.7,137 787.5,142.6 789.1,143.6 C789.8,144 790,145.5 789.5,147.9 C789.1,149.9 788.6,154.5 788.5,158.1 C788.1,173.5 774.4,185.6 762.8,180.9 C751.6,176.4 748,171.2 748,159.6 C748,155.2 747.5,151.8 746.9,151.4 C745.2,150.4 746.5,141.9 748.6,140.3 C751.9,137.9 749.2,137.9 745.7,140.3 C742.2,142.7 732.5,145.7 720.8,148 C717.6,148.6 715,149.5 715,149.9 C715,150.4 715.7,152.7 716.6,155.1 C719.8,164.1 722.8,177.5 722.1,179.5 C721.7,180.6 721.7,182.6 722.1,184 C723.6,189.3 723,193.7 719.8,200.1 C716.8,205.9 716.1,206.6 712.1,207.7 C709.6,208.4 707.2,209.4 706.6,210 C706.1,210.5 702.8,211 699.3,211 C693.3,211 692.8,210.8 688.9,206.9 C684,202 680.3,194.4 679.4,187.3 C679.1,184.4 678.4,181.7 677.9,181.4 C676.1,180.4 677,175.4 680,170 C682.7,164.9 684.1,157 682.2,157 C681.8,157 677.3,160.1 672.1,163.9 C659.7,173.2 653.2,180.5 648.3,191 C646.2,195.7 641.8,203.8 638.7,209.1 C631,222.2 626.2,232.5 625.4,237.5 C625.1,240.1 625.5,245.2 626.5,250.3 L628.2,258.8 L624.5,265.4 C621.1,271.5 620.6,272 617.5,272 C612.9,272 608,267.8 608,263.9 C608,262 608.5,261 609.5,261 C610.7,261 611,259.5 611,253.6 C611,248.1 611.8,243.8 614,237 C615.7,232 617,227.3 617,226.6 C617,222.1 629.7,180.6 635.7,165.5 C639.7,155.4 648.2,140.7 651.7,138 L653.9,136.3 L651.5,125.4 C650.1,119.4 649,114.1 649,113.7 C649,112.1 640,114 634.6,116.7 C629.5,119.2 625.2,123.5 626.5,124.8 C626.9,125.2 627.8,124.6 628.6,123.6 C630.5,120.9 630.4,122.5 627.9,129.9 C625.9,135.9 625.8,136.3 627.4,139.9 C628.7,142.8 628.9,144.2 628.1,146.4 C627.5,147.9 627,151.8 627,155.1 C627,162.4 624.3,168.6 619,173.4 C611.5,180.1 603.9,180.5 595,174.5 L590,171.1 L590.6,176.8 C591.6,185.8 594.8,201.7 596.2,204.7 C597,206.5 598.4,207.6 600,207.8 C606.9,208.6 608.9,210.8 610.1,219 C610.5,221.5 608.9,224 607,224 C606,224 605,225 604.7,226.2 C604.1,228.2 603.9,228.1 599.3,224.2 C590,216.2 589.3,215.2 587.4,208.2 C585.4,200.5 583.4,196 576.7,183.9 C572.4,176 571.6,175.2 568.4,174.5 C566.4,174.2 564.6,174.1 564.3,174.3 C564.1,174.6 562.8,181.2 561.5,189.1 C559.2,202.9 555.3,217.2 552.6,221.5 C551.9,222.6 551,226 550.7,229 C549.9,236.2 547.2,250.9 546.4,252.1 C545,254.4 544.1,252.5 543.8,246.8 L543.5,240.5 L541.3,245.5 C538,252.9 535.4,257.4 534.1,257.8 C532.2,258.4 532.9,253.2 535.6,246.9 C537,243.5 537.9,240.6 537.7,240.3 C537.4,240.1 535.6,243 533.5,246.7 C529.6,253.8 527.3,257 525.8,257 C524.4,257 524.9,254.1 527,250 C528.1,247.8 529,245.8 529,245.4 C529,245 528.1,245.5 527,246.5 C523.8,249.4 524.5,246.5 529.4,236.5 C531.8,231.6 534.1,226.5 534.5,225.2 C535.1,223.1 534.9,222.9 532.3,223.2 C530.3,223.4 529.4,224.1 529.2,225.8 C528.7,228.9 527.1,228.5 525.6,224.9 C524.9,223.2 523.2,221.3 521.9,220.6 C520.6,220 519.4,218.6 519.2,217.5 C519,216.4 517.5,214.3 515.9,212.8 C514.3,211.3 513,209.4 513,208.6 C513,207.8 509.4,199.6 505,190.3 C496,171.6 492.8,161.4 493.6,154.2 L494.1,149.5 L492.2,153 C490.2,156.7 481.8,166 480.5,166 C480.1,166 478,167.6 475.9,169.5 C473.7,171.4 471.1,173 470,173 C468.9,173 468,173.6 468,174.3 C468,176.4 474,185 477.1,187.3 C480.7,189.9 480.7,191.3 477.3,194 L474.5,196.2 L478.4,203.6 C480.6,207.7 482.9,211 483.6,211 C485.7,211 489,219.4 488.3,223.4 C488,225.4 487.3,227 486.9,227 C486.4,227 486,227.7 486,228.5 C486,229.4 485.3,230.3 484.5,230.6 C483.3,231.1 483.2,231.5 484.1,232.6 C485.7,234.5 484.6,235.4 481.7,234.6 C478.3,233.8 474.3,228.1 472.9,222.3 C471.7,217.5 469.1,210.4 466.3,204.3 C465,201.5 464.5,201.2 462.9,202.1 C461.4,202.9 460.8,202.7 460.4,201.3 C459.4,198.6 456,190.7 454.9,189 C454.4,188.2 452.1,183.8 449.8,179.3 C447.5,174.7 445.3,171 444.9,171 C444.6,171 443.8,173.5 443.1,176.6 L442,182.3 L445.4,186 C448.3,189.2 459.2,204.7 461.1,208.3 C461.5,209 462.3,211.3 463,213.5 C464.7,218.8 470.7,227.4 476.5,233 C483.3,239.5 490.7,254.5 492.1,264.7 C493.3,273 496.3,280.5 507.6,303.6 C511.1,310.7 514,317.2 514,317.8 C514,318.5 514.4,319 514.9,319 C515.4,319 517.1,321 518.6,323.4 C520.2,325.9 523,328.7 525,329.7 C529.9,332.3 530,334.9 525,338.9 L520.9,342.1 L526.2,352.1 C529.1,357.5 532,362 532.6,362 C536.6,362 543.3,377.5 540.1,379.4 C539.7,379.7 539.5,381.1 539.7,382.5 C540.1,384.2 539.7,385.2 538.6,385.6 C537.7,385.9 537,386.8 537,387.5 C537,388.2 536,389.4 534.8,390.3 C532.5,391.8 532.5,391.8 534.5,393.3 C537.2,395.4 535.4,397.1 531.5,396.2 C525.4,394.8 519.3,385.7 517.6,375.3 C517.2,373 515,366.5 512.7,360.8 L508.5,350.5 L504.5,350.5 C500.8,350.5 500.6,350.3 499.8,346.6 C499,343 497.7,339.9 493.7,332.5 C492.9,330.9 489.4,324.1 486,317.5 C482.6,310.9 478.8,304.2 477.6,302.5 C476.4,300.9 473.2,295.8 470.6,291.3 C468,286.7 465.4,282.7 464.9,282.4 C464.4,282.1 463.3,280.4 462.5,278.7 C460.3,273.9 450.2,258.7 448.6,257.8 C447.8,257.3 446.9,255.7 446.5,254.1 C445.8,250.8 443.6,248.5 440.2,247.7 C438.4,247.3 437.9,247.7 437.4,249.8 C437.1,251.3 434.8,259.3 432.3,267.5 C423.4,297.5 417.1,305.5 400.8,307.5 C390.4,308.8 383.6,304.5 374.9,291.2 C366.9,279 364.1,266.8 366.3,253.8 C367,249.8 366.9,249 365.6,249 C364.7,249 364,249.7 364,250.5 C364,251.3 363.1,252 362,252 C360.3,252 360.1,252.5 360.6,256.4 C361.1,259.4 360.7,262.2 359.5,265.4 C358,269.2 357.8,271.8 358.4,280.2 C358.7,285.9 359.3,296.1 359.5,303 C359.8,309.9 360.7,318 361.5,321 C362.2,324 363.2,333.4 363.6,341.8 C363.9,350.2 364.7,357.3 365.1,357.6 C365.6,357.9 366,360.4 366,363.2 C366,365.9 366.7,369.7 367.6,371.6 C368.9,374.3 369,375.3 368,376.5 C367.3,377.3 366.1,378 365.4,378 C363.7,378 363.7,379.7 365.1,389.5 C365.7,393.7 367,397.9 367.9,399 C368.8,400 373.8,402.2 379,403.9 L388.5,406.9 L388.2,415.2 C388.1,419.7 387.5,423.9 387,424.4 C386.4,425 386,426.7 386,428.2 C386,431.9 383.8,431.8 380.8,427.9 Z M534.1,208.8 C534.3,208.1 534.4,198.2 534.2,186.8 L533.9,166 L529.5,166 C527.1,166 522.8,165.5 520,164.9 C517.3,164.3 514.6,164 514.2,164.2 C512.9,164.7 515.9,182.8 518.5,190.7 C519.9,194.6 521,198.8 521,200 C521,202.6 524.9,206.6 529.3,208.5 C533.3,210.3 533.7,210.3 534.1,208.8 Z M585.5,148.5 C584.9,142.3 585.1,140.6 586.5,138.4 C587.4,137 588,135 587.7,134 C587.4,132.6 587.6,132.3 588.8,132.7 C590,133.2 590.2,132.8 589.7,130.2 C589.3,128.4 589.5,126.8 590.1,126.4 C590.7,126 590.5,125.1 589.4,123.9 C587.8,122.1 587.8,122 589.3,122.6 C590.4,123 591,122.7 591,121.7 C591,120.7 588.8,119.8 583.5,118.8 C575.4,117.2 575.6,117 576.6,123.3 C577.5,128.3 579.3,128.1 578.8,123 C578.4,118.7 579.3,117.8 581,120.9 C582.4,123.6 582.3,127.4 580.6,131.3 C579.4,134.2 579.6,135.6 582.3,145.3 C583.9,151.2 585.4,156 585.7,156 C586,156 585.9,152.6 585.5,148.5 Z M495.3,133.3 C495.7,129.5 495.6,129 493.9,129 C491.7,129 491.4,131.4 493,135.6 C494.3,138.9 494.6,138.6 495.3,133.3 Z M325.8,106 C330,104.9 330,104.9 330,100.2 C330,95.5 328.1,88.1 325.6,82.5 C324.8,80.9 323.9,76.4 323.5,72.7 C323,67.7 322.5,66 321.5,66.3 C320.8,66.6 318.2,67.1 315.7,67.5 C313.2,67.9 310.4,68.7 309.5,69.4 C308.1,70.4 308.1,70.9 309.6,75 C312.6,83.4 315.8,97.4 315,99.4 C314.6,100.5 314.7,103.1 315.3,105.1 C316.1,108.6 316.4,108.8 318.8,108 C320.3,107.5 323.4,106.6 325.8,106 Z M270,96.8 C270,96.1 271.3,93 273,90 C275.9,84.6 277.1,76.5 274.9,77.2 C272.4,78 260.1,87.6 260,88.8 C260,90.1 267.9,98 269.3,98 C269.7,98 270,97.4 270,96.8 Z M876.1,75.7 C874.1,73.7 873.8,75.9 875.1,81.2 L876.5,86.5 L876.8,81.6 C877,78.9 876.7,76.3 876.1,75.7 Z M1077,80.5 C1077,79.7 1076.6,79 1076.1,79 C1075.6,79 1075,79.7 1074.6,80.5 C1074.3,81.4 1074.6,82 1075.5,82 C1076.3,82 1077,81.3 1077,80.5 Z M427.4,47.1 C427.8,44.4 427.6,40.1 427,37.5 C425.9,32.4 423.2,25.5 422.6,26.1 C422.2,26.5 423.9,47 424.6,50.8 C425.3,54.4 426.7,52.5 427.4,47.1 Z M152.5,28.9 C153.4,27.5 152.7,27 148.6,26 C145.4,25.3 145,25.4 145,27.2 C145,28.2 145.3,28.9 145.8,28.7 C146.2,28.4 147.4,28.6 148.5,29.1 C151.3,30.2 151.8,30.2 152.5,28.9 Z M145,18 C145,16.4 144.6,15 144,15 C142.9,15 142.6,19.3 143.7,20.3 C144.8,21.5 145,21.1 145,18 Z" id="Shape"></path>
            </g>
        </g>
    </g>
</svg>