<?xml version="1.0" encoding="UTF-8"?>
<svg width="344px" height="179px" viewBox="0 0 344 179" version="1.1" xmlns="http://www.w3.org/2000/svg" xmlns:xlink="http://www.w3.org/1999/xlink">
    <!-- Generator: Sketch 61.2 (89653) - https://sketch.com -->
    <title>Group 2</title>
    <desc>Created with Sketch.</desc>
    <g id="Logo" stroke="none" stroke-width="1" fill="none" fill-rule="evenodd">
        <rect id="Rectangle" fill="#FFFFFF" x="-142" y="-286" width="722" height="736"></rect>
        <g id="Group-2" transform="translate(-12.000000, -14.000000)" fill="#C71645">
            <text id="Tipy" font-family="SignPainter-HouseScript, SignPainter" font-size="180" font-style="condensed" font-weight="normal">
                <tspan x="135" y="126">Tipy</tspan>
            </text>
            <path d="M91.2495098,145.883208 C83.8084406,149.059188 75.2937686,150.305543 65.7191743,149.153267 L65.8664543,148.65995 L65.8664543,148.65995 C75.4245052,149.586676 83.7474157,148.514785 90.7049539,146.076446 Z M18.8860821,71.4563838 C25.7069947,36.3658305 48.3445554,10.9614635 82.3933597,15.1918894 C55.0672466,13.8142993 40.425523,31.8646169 38.9332522,46.0626254 C37.0613564,63.8725235 49.9074467,75.9293541 72.9117225,83.94386 C98.0314753,92.6673775 106.342334,101.570873 104.748693,116.733354 C103.281532,130.692463 87.8675456,140.752372 69.0949503,138.779293 C72.5005175,127.213915 74.1845109,122.767583 75.069867,114.343983 C75.8793354,106.642405 74.7879786,93.8743826 57.7001034,92.0783746 C38.3064625,90.0400208 23.4960291,101.918855 21.0494856,114.999705 C16.4471926,102.310614 15.8276415,87.1906963 18.8860821,71.4563838 Z M55.9409491,101.870133 C62.4391551,102.553122 64.7454413,108.392182 64.1636359,113.927691 C63.3541675,121.629268 62.4044816,123.719449 58.2646069,137.640978 C43.9000366,135.401202 30.3326502,127.891887 31.3950775,117.783566 C32.4828007,107.434572 44.8699313,100.706522 55.9409491,101.870133 Z M82.0226026,25.0415332 C79.5284141,32.5660395 76.7682554,40.3059243 76.1611541,46.0821075 C74.592809,61.003914 85.5756545,65.3215866 92.0738606,66.0045756 C106.007674,67.7124114 117.685066,58.4764356 118.823381,47.6460922 C119.419861,41.970965 118.35191,36.4426552 115.818798,31.6544055 C128.588267,46.2289992 131.512086,68.5385605 126.865072,92.4453733 C124.081803,106.764052 118.99508,119.534101 111.645901,129.349962 C113.671395,125.759496 114.909247,121.929135 115.313067,118.087047 C118.24739,90.1688287 94.9135405,80.6596852 76.1149226,74.3038768 C69.5278176,72.1515461 47.8916999,65.0108384 49.7635956,47.2009403 C50.9525023,35.8892483 61.2487252,23.5881097 82.0226026,25.0415332 Z M92.5869758,26.3952266 C104.684294,29.370037 108.954282,37.3621539 107.993038,46.5077772 C107.360641,52.5246347 101.534592,57.0222854 93.5923406,56.1875211 C87.3348088,55.529828 86.6373551,50.5898626 86.9914975,47.2204224 C87.5227112,42.1662622 90.0927873,33.9197329 92.5869758,26.3952266 Z" id="Combined-Shape" stroke="#FFFFFF" stroke-width="3" transform="translate(72.971376, 82.153298) rotate(16.000000) translate(-72.971376, -82.153298) "></path>
        </g>
    </g>
</svg>